<svg width="230" height="95" viewBox="0 0 230 95" fill="none" xmlns="http://www.w3.org/2000/svg">
<g filter="url(#filter0_d)">
<path d="M96.5 33V47H93.26V41.26H86.9V47H83.66V33H86.9V38.52H93.26V33H96.5ZM110.032 44H103.532L102.292 47H98.9723L105.212 33H108.412L114.672 47H111.272L110.032 44ZM109.012 41.54L106.792 36.18L104.572 41.54H109.012ZM123.185 33C124.425 33 125.498 33.2067 126.405 33.62C127.325 34.0333 128.032 34.62 128.525 35.38C129.018 36.14 129.265 37.04 129.265 38.08C129.265 39.1067 129.018 40.0067 128.525 40.78C128.032 41.54 127.325 42.1267 126.405 42.54C125.498 42.94 124.425 43.14 123.185 43.14H120.365V47H117.125V33H123.185ZM123.005 40.5C123.978 40.5 124.718 40.2933 125.225 39.88C125.732 39.4533 125.985 38.8533 125.985 38.08C125.985 37.2933 125.732 36.6933 125.225 36.28C124.718 35.8533 123.978 35.64 123.005 35.64H120.365V40.5H123.005ZM138.638 33C139.878 33 140.951 33.2067 141.858 33.62C142.778 34.0333 143.485 34.62 143.978 35.38C144.471 36.14 144.718 37.04 144.718 38.08C144.718 39.1067 144.471 40.0067 143.978 40.78C143.485 41.54 142.778 42.1267 141.858 42.54C140.951 42.94 139.878 43.14 138.638 43.14H135.818V47H132.578V33H138.638ZM138.458 40.5C139.431 40.5 140.171 40.2933 140.678 39.88C141.185 39.4533 141.438 38.8533 141.438 38.08C141.438 37.2933 141.185 36.6933 140.678 36.28C140.171 35.8533 139.431 35.64 138.458 35.64H135.818V40.5H138.458ZM154.751 42.04V47H151.511V42L146.091 33H149.531L153.271 39.22L157.011 33H160.191L154.751 42.04ZM175.271 33C176.511 33 177.584 33.2067 178.491 33.62C179.411 34.0333 180.117 34.62 180.611 35.38C181.104 36.14 181.351 37.04 181.351 38.08C181.351 39.1067 181.104 40.0067 180.611 40.78C180.117 41.54 179.411 42.1267 178.491 42.54C177.584 42.94 176.511 43.14 175.271 43.14H172.451V47H169.211V33H175.271ZM175.091 40.5C176.064 40.5 176.804 40.2933 177.311 39.88C177.817 39.4533 178.071 38.8533 178.071 38.08C178.071 37.2933 177.817 36.6933 177.311 36.28C176.804 35.8533 176.064 35.64 175.091 35.64H172.451V40.5H175.091ZM195.504 44.4V47H184.664V33H195.244V35.6H187.884V38.64H194.384V41.16H187.884V44.4H195.504ZM201.982 35.64H197.502V33H209.702V35.64H205.222V47H201.982V35.64Z" fill="black"/>
<path d="M20 23C20 18.5817 23.5817 15 28 15H62C66.4183 15 70 18.5817 70 23V57C70 61.4183 66.4183 65 62 65H41.4497C39.9747 65 38.653 65.9109 38.1279 67.2892C36.9904 70.2752 32.7975 70.3609 31.5389 67.424L31.4477 67.2112C30.8728 65.8698 29.5537 65 28.0943 65H26.3276C22.833 65 20 62.167 20 58.6724V23Z" fill="black"/>
<g clip-path="url(#clip0)">
<path d="M51.5182 43.9125C50.1491 40.8273 47.9167 38.7126 45.2321 37.9579C42.5476 37.2032 39.5403 37.8449 36.7642 39.7647C34.2689 41.4904 32.3597 44.0125 31.6572 46.5115C31.3159 47.7255 31.4271 48.7545 31.9875 49.57C32.5407 50.375 33.4371 50.8467 34.5012 51.1458C35.6333 51.4641 36.9553 51.5869 38.2542 51.7076C39.3892 51.813 40.4612 51.9126 41.247 52.1335C41.9252 52.3242 42.8316 52.7705 43.791 53.243C46.0331 54.3472 48.5745 55.5987 50.4854 54.7464C51.3939 54.3412 52.0251 53.5289 52.3615 52.3321C53.0641 49.8331 52.7489 46.6856 51.5182 43.9125Z" fill="white"/>
<path d="M55.5503 30.3834C55.1063 29.0521 54.2007 28.1056 53.0656 27.7865C51.9305 27.4674 50.6644 27.8034 49.5917 28.7082C48.6063 29.5395 47.8434 30.7805 47.4436 32.2026C47.0438 33.6247 47.0483 35.0814 47.4562 36.3044C47.9002 37.6356 48.8059 38.5821 49.9409 38.9012C51.0761 39.2204 52.3422 38.8843 53.4148 37.9795C54.4002 37.1482 55.1631 35.9073 55.5629 34.4851C55.9627 33.063 55.9583 31.6063 55.5503 30.3834Z" fill="white"/>
<path d="M46.3312 27.7915C45.8871 26.4602 44.9816 25.5137 43.8464 25.1946C42.7113 24.8755 41.4451 25.2115 40.3725 26.1164C39.3872 26.9476 38.6243 28.1886 38.2245 29.6107C37.8247 31.0328 37.8291 32.4895 38.237 33.7125C38.6811 35.0438 39.5866 35.9903 40.7217 36.3094C41.8569 36.6286 43.123 36.2926 44.1957 35.3877C45.181 34.5564 45.9439 33.3155 46.3437 31.8933C46.7435 30.4711 46.739 29.0144 46.3312 27.7915Z" fill="white"/>
<path d="M60.7325 41.2532C60.7191 40.1273 60.2763 39.1874 59.4856 38.6068C58.8493 38.1396 58.0335 37.9592 57.1884 38.0987C56.0239 38.291 54.9031 39.049 54.1136 40.1783C53.4685 41.1011 53.1198 42.1702 53.1319 43.1888C53.1453 44.3147 53.5881 45.2545 54.3789 45.8352C54.6525 46.0361 54.9593 46.1839 55.2873 46.2762C55.7221 46.3984 56.1944 46.4228 56.6761 46.3433C57.8406 46.151 58.9614 45.393 59.7509 44.2638L59.7509 44.2638C60.3959 43.341 60.7446 42.2718 60.7325 41.2532Z" fill="white"/>
<path d="M36.4949 35.225C36.4095 33.8497 35.8478 32.6188 34.9541 31.8479C34.3055 31.2885 33.5151 31.0174 32.7286 31.0846C31.7512 31.1682 30.8834 31.7396 30.2854 32.6935C29.7443 33.5566 29.4848 34.6508 29.5546 35.7746L29.5546 35.7747C29.6401 37.1499 30.2016 38.3808 31.0954 39.1517C31.4651 39.4706 31.8808 39.6958 32.3157 39.8181C32.6437 39.9103 32.9826 39.9439 33.3208 39.915C34.2984 39.8315 35.1661 39.26 35.7641 38.3061C36.3051 37.4431 36.5646 36.3488 36.4949 35.225Z" fill="white"/>
</g>
</g>
<defs>
<filter id="filter0_d" x="0" y="0" width="229.702" height="94.5785" filterUnits="userSpaceOnUse" color-interpolation-filters="sRGB">
<feFlood flood-opacity="0" result="BackgroundImageFix"/>
<feColorMatrix in="SourceAlpha" type="matrix" values="0 0 0 0 0 0 0 0 0 0 0 0 0 0 0 0 0 0 127 0"/>
<feOffset dy="5"/>
<feGaussianBlur stdDeviation="10"/>
<feColorMatrix type="matrix" values="0 0 0 0 0 0 0 0 0 0 0 0 0 0 0 0 0 0 0.38 0"/>
<feBlend mode="normal" in2="BackgroundImageFix" result="effect1_dropShadow"/>
<feBlend mode="normal" in="SourceGraphic" in2="effect1_dropShadow" result="shape"/>
</filter>
<clipPath id="clip0">
<rect width="32" height="32" fill="white" transform="translate(33.6604 20) rotate(15.7022)"/>
</clipPath>
</defs>
</svg>
