<svg width="22" height="22" viewBox="0 0 22 22" fill="none" xmlns="http://www.w3.org/2000/svg">
<g clip-path="url(#clip0)">
<path d="M21.4012 16.1458L18.3311 13.0756C17.2346 11.9791 15.3705 12.4178 14.9319 13.8432C14.603 14.83 13.5065 15.3783 12.5197 15.1589C10.3267 14.6107 7.36617 11.7598 6.81793 9.45721C6.48898 8.47033 7.14687 7.37384 8.13371 7.04493C9.55915 6.60634 9.99774 4.74231 8.90125 3.64582L5.83109 0.575656C4.9539 -0.191885 3.63811 -0.191885 2.87057 0.575656L0.787244 2.65898C-1.29608 4.85196 1.00654 10.6633 6.16004 15.8168C11.3135 20.9703 17.1249 23.3826 19.3179 21.1896L21.4012 19.1063C22.1688 18.2291 22.1688 16.9133 21.4012 16.1458Z" fill="black"/>
</g>
<defs>
<clipPath id="clip0">
<rect width="22" height="22" fill="white"/>
</clipPath>
</defs>
</svg>
